<?xml version="1.0" encoding="utf-8"?>
<!-- Generator: Adobe Illustrator 19.1.0, SVG Export Plug-In . SVG Version: 6.00 Build 0)  -->
<svg version="1.0" id="Layer_1" xmlns="http://www.w3.org/2000/svg" xmlns:xlink="http://www.w3.org/1999/xlink" x="0px" y="0px"
	 viewBox="0 0 767 631" style="enable-background:new 0 0 767 631;" xml:space="preserve">
<style type="text/css">
	.st0{fill:#2E68B1;}
	.st1{opacity:0.3;fill:none;stroke:#F6F6F6;stroke-miterlimit:10;}
	.st2{opacity:0.5;fill:none;stroke:#DADADA;stroke-miterlimit:10;}
	.st3{opacity:0.7;fill:none;stroke:#F6F6F6;stroke-miterlimit:10;}
</style>
<rect x="0.5" y="0.5" class="st0" width="766" height="630"/>
<path class="st1" d="M733.5,605.7H34 M34,595.7h699.5 M34,585.7h699.5 M34,575.7h699.5 M34,555.7h699.5 M34,545.7h699.5 M34,535.7
	h699.5 M34,525.7h699.5 M34,505.7h699.5 M34,495.7h699.5 M34,485.7h699.5 M34,475.7h699.5 M34,455.7h699.5 M34,445.7h699.5
	 M34,435.7h699.5 M34,425.7h699.5 M34,405.7h699.5 M34,395.7h699.5 M34,385.7h699.5 M34,375.7h699.5 M34,355.7h699.5 M34,345.7
	h699.5 M34,335.7h699.5 M34,325.7h699.5 M34,305.7h699.5 M34,295.7h699.5 M34,285.7h699.5 M34,275.7h699.5 M34,255.7h699.5
	 M34,245.7h699.5 M34,235.7h699.5 M34,225.7h699.5 M34,205.7h699.5 M34,195.7h699.5 M34,185.7h699.5 M34,175.7h699.5 M34,155.7
	h699.5 M34,145.7h699.5 M34,135.7h699.5 M34,125.7h699.5 M34,105.7h699.5 M34,95.7h699.5 M34,85.7h699.5 M34,75.7h699.5 M34,55.7
	h699.5 M34,45.7h699.5 M34,35.7h699.5 M34,25.7h699.5"/>
<line class="st2" x1="44" y1="15.3" x2="44" y2="615.7"/>
<line class="st2" x1="54" y1="15.3" x2="54" y2="615.7"/>
<line class="st2" x1="64" y1="15.3" x2="64" y2="615.7"/>
<line class="st2" x1="74" y1="15.3" x2="74" y2="615.7"/>
<line class="st2" x1="94" y1="15.3" x2="94" y2="615.7"/>
<line class="st2" x1="104" y1="15.3" x2="104" y2="615.7"/>
<line class="st2" x1="114" y1="15.3" x2="114" y2="615.7"/>
<line class="st2" x1="124" y1="15.3" x2="124" y2="615.7"/>
<line class="st2" x1="144" y1="15.3" x2="144" y2="615.7"/>
<line class="st2" x1="154" y1="15.3" x2="154" y2="615.7"/>
<line class="st2" x1="164" y1="15.3" x2="164" y2="615.7"/>
<line class="st2" x1="174" y1="15.3" x2="174" y2="615.7"/>
<line class="st2" x1="194" y1="15.3" x2="194" y2="615.7"/>
<line class="st2" x1="204" y1="15.3" x2="204" y2="615.7"/>
<line class="st2" x1="214" y1="15.3" x2="214" y2="615.7"/>
<line class="st2" x1="224" y1="15.3" x2="224" y2="615.7"/>
<line class="st2" x1="244" y1="15.3" x2="244" y2="615.7"/>
<line class="st2" x1="254" y1="15.3" x2="254" y2="615.7"/>
<line class="st2" x1="264" y1="15.3" x2="264" y2="615.7"/>
<line class="st2" x1="274" y1="15.3" x2="274" y2="615.7"/>
<line class="st2" x1="294" y1="15.3" x2="294" y2="615.7"/>
<line class="st2" x1="304" y1="15.3" x2="304" y2="615.7"/>
<line class="st2" x1="314" y1="15.3" x2="314" y2="615.7"/>
<line class="st2" x1="324" y1="15.3" x2="324" y2="615.7"/>
<line class="st2" x1="344" y1="15.3" x2="344" y2="615.7"/>
<line class="st2" x1="354" y1="15.3" x2="354" y2="615.7"/>
<line class="st2" x1="364" y1="15.3" x2="364" y2="615.7"/>
<line class="st2" x1="374" y1="15.3" x2="374" y2="615.7"/>
<line class="st2" x1="394" y1="15.3" x2="394" y2="615.7"/>
<line class="st2" x1="404" y1="15.3" x2="404" y2="615.7"/>
<line class="st2" x1="414" y1="15.3" x2="414" y2="615.7"/>
<line class="st2" x1="424" y1="15.3" x2="424" y2="615.7"/>
<line class="st2" x1="444" y1="15.3" x2="444" y2="615.7"/>
<line class="st2" x1="454" y1="15.3" x2="454" y2="615.7"/>
<line class="st2" x1="464" y1="15.3" x2="464" y2="615.7"/>
<line class="st2" x1="474" y1="15.3" x2="474" y2="615.7"/>
<line class="st2" x1="494" y1="15.3" x2="494" y2="615.7"/>
<line class="st2" x1="504" y1="15.3" x2="504" y2="615.7"/>
<line class="st2" x1="514" y1="15.3" x2="514" y2="615.7"/>
<line class="st2" x1="524" y1="15.3" x2="524" y2="615.7"/>
<line class="st2" x1="544" y1="15.3" x2="544" y2="615.7"/>
<line class="st2" x1="554" y1="15.3" x2="554" y2="615.7"/>
<line class="st2" x1="564" y1="15.3" x2="564" y2="615.7"/>
<line class="st2" x1="574" y1="15.3" x2="574" y2="615.7"/>
<line class="st2" x1="594" y1="15.3" x2="594" y2="615.7"/>
<line class="st2" x1="604" y1="15.3" x2="604" y2="615.7"/>
<line class="st2" x1="614" y1="15.3" x2="614" y2="615.7"/>
<line class="st2" x1="624" y1="15.3" x2="624" y2="615.7"/>
<line class="st2" x1="644" y1="15.3" x2="644" y2="615.7"/>
<line class="st2" x1="654" y1="15.3" x2="654" y2="615.7"/>
<line class="st2" x1="664" y1="15.3" x2="664" y2="615.7"/>
<line class="st2" x1="674" y1="15.3" x2="674" y2="615.7"/>
<path class="st3" d="M733.5,615.7H34V15.3h699.5V615.7z M34,565.7h699.5 M34,515.7h699.5 M34,465.7h699.5 M34,415.7h699.5 M34,365.7
	h699.5 M34,315.7h699.5 M34,265.7h699.5 M34,215.7h699.5 M34,165.7h699.5 M34,115.7h699.5 M34,65.7h699.5 M84,615.7V15.3 M134,15.3
	v600.5 M184,615.7V15.3 M234,615.7V15.3 M284,15.3v600.5 M334,615.7V15.3 M384,615.7V15.3 M434,15.3v600.5 M484,615.7V15.3
	 M534,15.3v600.5 M584,15.3v600.5 M634,615.7V15.3 M684,15.3v600.5"/>
<line class="st2" x1="694" y1="15.3" x2="694" y2="615.7"/>
<line class="st2" x1="704" y1="15.3" x2="704" y2="615.7"/>
<line class="st2" x1="714" y1="15.3" x2="714" y2="615.7"/>
<line class="st2" x1="724" y1="15.3" x2="724" y2="615.7"/>
</svg>
